<?xml version="1.0" encoding="UTF-8" standalone="no"?>
<svg
   width="24"
   height="24"
   viewBox="0 0 24 24"
   role="img"
   aria-label="folder icon"
   version="1.1"
   id="svg1"
   sodipodi:docname="PropsFile.svg"
   inkscape:version="1.4.2 (f4327f4, 2025-05-13)"
   xml:space="preserve"
   xmlns:inkscape="http://www.inkscape.org/namespaces/inkscape"
   xmlns:sodipodi="http://sodipodi.sourceforge.net/DTD/sodipodi-0.dtd"
   xmlns="http://www.w3.org/2000/svg"
   xmlns:svg="http://www.w3.org/2000/svg"><defs
     id="defs1" /><sodipodi:namedview
     id="namedview1"
     pagecolor="#505050"
     bordercolor="#eeeeee"
     borderopacity="1"
     inkscape:showpageshadow="0"
     inkscape:pageopacity="0"
     inkscape:pagecheckerboard="0"
     inkscape:deskcolor="#505050"
     inkscape:zoom="32"
     inkscape:cx="10.28125"
     inkscape:cy="16.171875"
     inkscape:window-width="2560"
     inkscape:window-height="1369"
     inkscape:window-x="-8"
     inkscape:window-y="-8"
     inkscape:window-maximized="1"
     inkscape:current-layer="svg1" /><!-- background (transparent) --><!-- folder body (filled) --><path
     d="m 11.120802,3.1038566 h 6.20729 c 0.662742,0 1.2,0.5372583 1.2,1.1999999 V 19.696144 c 0,0.662742 -0.537258,1.2 -1.2,1.2 H 6.6719081 c -0.6627417,0 -1.2000001,-0.537258 -1.2000001,-1.2 V 7.9141718 Z"
     fill="#4b4d50"
     stroke="#dfe5e9"
     stroke-width="0.8"
     stroke-linejoin="round"
     filter="url(#glow)"
     id="path1"
     sodipodi:nodetypes="csssssscc"
     style="display:none;stroke-width:1;stroke-dasharray:none" /><path
     style="display:inline;fill:none;fill-opacity:1;stroke:#dfe5e9;stroke-width:1;stroke-linecap:round;stroke-linejoin:round;stroke-dasharray:none;stroke-opacity:1"
     d="m 5.471908,7.9141718 5.648118,0.010562 7.76e-4,-4.8208776"
     id="path2"
     sodipodi:nodetypes="ccc" /><path
     d="m 19.611825,14.071401 v 7.674696 c 0,0.626632 -0.504473,1.131105 -1.131105,1.131105 -0.626632,0 -1.131105,-0.504473 -1.131105,-1.131105 v -7.674696"
     style="fill:#2b3f64;fill-opacity:1;stroke:#5287f1;stroke-linecap:round;stroke-linejoin:round;stroke-opacity:1"
     id="path1-8" /><path
     id="rect5"
     style="fill:#2b3f64;fill-opacity:1;stroke:#5287f1;stroke-linecap:round;stroke-linejoin:round;stroke-opacity:1"
     d="m 21.777449,11.640102 c 0,1.794571 -1.454787,3.249358 -3.249358,3.249358 -1.794571,0 -3.249357,-1.454787 -3.249357,-3.249358 0,-1.7945702 1.454787,-3.2493567 3.249357,-3.2493568 1.794571,-4e-7 3.249358,1.4547862 3.249358,3.2493568 z"
     sodipodi:nodetypes="sssss" /><rect
     style="display:inline;fill:#2b3f64;fill-opacity:1;stroke:#5287f1;stroke-linecap:round;stroke-linejoin:round;stroke-opacity:1"
     id="rect6"
     width="2.1231384"
     height="6.7741694"
     x="17.466522"
     y="5.9328065"
     ry="1.1311053"
     rx="1.0615692" /></svg>
